<?xml version="1.0" encoding="UTF-8"?>
<svg version="1.1" xmlns="http://www.w3.org/2000/svg" width="500" height="500">
<path d="M0 0 C165 0 330 0 500 0 C500 165 500 330 500 500 C335 500 170 500 0 500 C0 335 0 170 0 0 Z " fill="#020202" transform="translate(0,0)"/>
<path d="M0 0 C0.71452111 -0.00024107 1.42904222 -0.00048214 2.16521549 -0.00073051 C4.4534555 0.00074945 6.74136013 0.01592084 9.02954102 0.03173828 C10.45210615 0.03468281 11.87467347 0.03672073 13.29724121 0.0378418 C18.54267651 0.0482816 23.78806526 0.07620414 29.03344727 0.10205078 C40.76907227 0.14330078 52.50469727 0.18455078 64.59594727 0.22705078 C64.59594727 30.25705078 64.59594727 60.28705078 64.59594727 91.22705078 C89.34594727 91.22705078 114.09594727 91.22705078 139.59594727 91.22705078 C139.59594727 61.19705078 139.59594727 31.16705078 139.59594727 0.22705078 C172.29514236 0.10614168 172.29514236 0.10614168 186.02954102 0.08056641 C195.50143321 0.06278652 204.97324515 0.04191898 214.44506836 0.00073242 C221.34428363 -0.0292532 228.24343361 -0.04854389 235.14271224 -0.0552147 C238.79281872 -0.05911152 242.44273849 -0.06821239 246.09278488 -0.09013939 C250.17644131 -0.11447021 254.25977709 -0.11491336 258.34350586 -0.11352539 C260.14102295 -0.12970413 260.14102295 -0.12970413 261.97485352 -0.14620972 C272.57572864 -0.10732911 281.83138035 1.54579467 289.59594727 9.22705078 C296.16108718 17.23652148 297.90094231 24.57020887 297.85664368 34.69526672 C297.86046922 35.62932553 297.86429477 36.56338434 297.86823624 37.52574795 C297.87852797 40.64539692 297.87458133 43.76486052 297.87060547 46.88452148 C297.87495409 49.12545949 297.88013774 51.36639601 297.88609314 53.60733032 C297.89947909 59.6879886 297.90006218 65.76858471 297.89752984 71.84925485 C297.89645972 76.92867952 297.90134461 82.00809164 297.90613526 87.08751363 C297.91786349 99.75853098 297.91700619 112.42951033 297.91057845 125.10052713 C297.90541176 136.08969011 297.91665948 147.07876438 297.93567667 158.06790981 C297.95507785 169.36605039 297.96301591 180.6641502 297.95955342 191.96231145 C297.95774186 198.29951937 297.96036408 204.63664606 297.97426796 210.97384071 C297.98685808 216.93531948 297.98489081 222.89662098 297.97185707 228.85809708 C297.96949423 231.04214348 297.97221544 233.22620241 297.98048019 235.41023445 C297.99097413 238.39965516 297.98282551 241.388484 297.97016907 244.37788391 C297.97754335 245.23500782 297.98491764 246.09213173 297.99251539 246.97522908 C297.90721288 256.60200474 295.47321469 265.26007987 288.59594727 272.22705078 C279.29779495 279.97551105 270.27342195 280.52390463 258.57055664 280.45410156 C256.63759735 280.45453964 256.63759735 280.45453964 254.66558838 280.45498657 C251.1537207 280.45555741 247.64199128 280.44384704 244.13015556 280.42983866 C240.4519713 280.41728612 236.77378343 280.41615725 233.09558105 280.41378784 C226.14012113 280.40758631 219.18472451 280.39119357 212.22929239 280.37108886 C202.82354127 280.34449507 193.41777268 280.33374649 184.01199341 280.32208443 C169.20659733 280.30331193 154.40133481 280.26345747 139.59594727 280.22705078 C139.59594727 250.52705078 139.59594727 220.82705078 139.59594727 190.22705078 C114.51594727 190.22705078 89.43594727 190.22705078 63.59594727 190.22705078 C63.59594727 219.92705078 63.59594727 249.62705078 63.59594727 280.22705078 C46.30188477 280.31986328 46.30188477 280.31986328 28.65844727 280.41455078 C25.03368408 280.44186279 21.4089209 280.4691748 17.67431641 280.49731445 C13.20812988 280.51086426 13.20812988 280.51086426 11.10960388 280.51338196 C9.66080451 280.51795363 8.21201571 280.52843124 6.76329041 280.54377747 C-5.24447172 280.66448738 -15.37784543 279.96821996 -24.40405273 271.22705078 C-31.21122067 263.07656146 -32.71011777 254.97469219 -32.66474915 244.6318512 C-32.66857469 243.6962324 -32.67240024 242.7606136 -32.67634171 241.79664272 C-32.68661779 238.67776565 -32.68268983 235.55907454 -32.67871094 232.44018555 C-32.68306036 230.19747752 -32.68824428 227.95477099 -32.69419861 225.71206665 C-32.70757425 219.63153471 -32.70816891 213.55106499 -32.70563531 207.47052121 C-32.70456474 202.3909521 -32.70945112 197.31139553 -32.71424073 192.23182911 C-32.72596443 179.56258057 -32.72511364 166.89337007 -32.71868392 154.2241221 C-32.7135147 143.23434716 -32.72477239 132.24466085 -32.74378214 121.25490344 C-32.76317669 109.95560603 -32.77112259 98.65634936 -32.76765889 87.35703129 C-32.76584673 81.01931121 -32.76847568 74.68167235 -32.78237343 68.34396553 C-32.79495399 62.38411813 -32.79300533 56.42444812 -32.77996254 50.46460342 C-32.77759782 48.28013613 -32.78032768 46.09565635 -32.78858566 43.91120338 C-32.79906333 40.9236752 -32.79094401 37.93674114 -32.77827454 34.94923401 C-32.78564882 34.08987938 -32.79302311 33.23052475 -32.80062085 32.34512907 C-32.71745306 22.98935953 -29.97520783 14.99776373 -23.40405273 8.22705078 C-16.21555948 2.3217494 -9.36117581 -0.03290396 0 0 Z " fill="#FDFDFD" transform="translate(52.404052734375,109.77294921875)"/>
<path d="M0 0 C78.87 0 157.74 0 239 0 C239 40.92 239 81.84 239 124 C230.09 128.62 221.18 133.24 212 138 C202.99730255 143.07132503 202.99730255 143.07132503 194.015625 148.1796875 C188.97625488 151.04032623 183.85328252 153.6284708 178.64453125 156.16796875 C174.06477348 158.43406837 169.60223907 160.91432336 165.125 163.375 C156.27940307 168.23185369 147.39691461 173.01518263 138.48675537 177.7522583 C137.0992839 178.48992522 135.71210822 179.22814882 134.32525635 179.96697998 C132.35052714 181.01870858 130.37465959 182.06826721 128.3984375 183.1171875 C127.26067871 183.72159668 126.12291992 184.32600586 124.95068359 184.94873047 C119.67629082 187.71572841 114.33287933 190.34811525 109 193 C108.99453156 191.89698296 108.99453156 191.89698296 108.98895264 190.77168274 C108.95082442 183.78529391 108.89369577 176.79936529 108.81609726 169.81332111 C108.77686511 166.22310577 108.74455971 162.63312679 108.72900391 159.04272461 C108.71367473 155.56700401 108.67895051 152.09193432 108.63169098 148.61650658 C108.60999418 146.66886244 108.60754034 144.72103372 108.60565186 142.77326965 C108.37520977 128.51239975 104.48670343 116.07809009 94.67578125 105.4921875 C82.2509671 93.67203464 68.10920404 90.54773224 51.33691406 90.56762695 C50.02818329 90.5574353 48.71945251 90.54724365 47.37106323 90.53674316 C43.82227734 90.50943305 40.27365161 90.49992454 36.72477436 90.49388909 C33.00116581 90.48443685 29.27767377 90.4582286 25.55413818 90.43388367 C18.52095011 90.39040179 11.48778487 90.36174288 4.45450377 90.33856028 C-3.56020005 90.31140975 -11.5747856 90.26750481 -19.58940458 90.22227156 C-36.05954286 90.12968794 -52.52970242 90.05788765 -69 90 C-69.07497625 85.76826361 -69.12898541 81.53689412 -69.16479492 77.3046875 C-69.17974586 75.8693975 -69.20011424 74.43415209 -69.22631836 72.99902344 C-69.42340841 61.9156062 -69.12260498 51.77485053 -61.79296875 42.81640625 C-52.49602071 33.39792948 -40.17742293 31.43077857 -27.6875 28.875 C-26.44548828 28.61074219 -25.20347656 28.34648437 -23.92382812 28.07421875 C-22.08014648 27.69330078 -22.08014648 27.69330078 -20.19921875 27.3046875 C-19.10440186 27.07765137 -18.00958496 26.85061523 -16.8815918 26.61669922 C-11.62628374 25.78174682 -6.30284165 25.44190347 -1 25 C-0.67 16.75 -0.34 8.5 0 0 Z " fill="#FDFDFD" transform="translate(261,0)"/>
<path d="M0 0 C10.43454778 5.16180844 20.78934579 10.45542982 31.07421875 15.90942383 C33.26132661 17.06850264 35.45088556 18.22285515 37.640625 19.37695312 C43.99916763 22.73850755 50.30857934 26.13679044 56.5 29.80078125 C61.13941938 32.5442309 65.82970807 34.93297702 70.75 37.125 C75.65765444 39.31739142 80.20020198 41.69355333 84.72265625 44.59863281 C89.554605 47.57198035 94.61732082 50.15028556 99.625 52.8125 C108.01537372 57.2957041 116.35442472 61.82881751 124.55859375 66.64453125 C127.01926624 68.10865622 127.01926624 68.10865622 130 69 C130 109.92 130 150.84 130 193 C110.2 193 90.4 193 70 193 C70 186.50054275 70.02092003 180.34741477 70.50317383 173.92211914 C70.55693019 173.1905982 70.61068655 172.45907726 70.66607189 171.70538902 C70.84262735 169.31501437 71.02482456 166.92510618 71.20703125 164.53515625 C71.33388122 162.83076287 71.46033717 161.12634013 71.58642578 159.42189026 C71.85321613 155.82456754 72.12234938 152.22743158 72.39346313 148.63043213 C73.02447796 140.25684314 73.64381881 131.88238718 74.26407433 123.50799561 C74.46810951 120.75473661 74.6726156 118.00151285 74.87715149 115.24829102 C76.03189998 99.68283663 77.11805335 84.11342773 78.1496582 68.53930664 C78.2021875 67.74991196 78.2547168 66.96051727 78.30883789 66.14720154 C78.44259629 64.13158421 78.57455636 62.11584775 78.70629883 60.10009766 C79.09098351 54.7298611 79.55288339 49.36539931 80 44 C71.75 44 63.5 44 55 44 C54.67 45.65 54.34 47.3 54 49 C52.94968434 51.66463644 51.86048191 54.26545448 50.6875 56.875 C50.16071655 58.04760376 50.16071655 58.04760376 49.62329102 59.24389648 C36.29512362 88.43444016 19.73140094 116.66308743 0 142 C-0.53625 142.75023437 -1.0725 143.50046875 -1.625 144.2734375 C-10.67865632 156.088459 -27.73549452 159.89053404 -41.6875 162.125 C-42.67427734 162.29386719 -43.66105469 162.46273437 -44.67773438 162.63671875 C-57.49262576 164.74077978 -70.3112572 165.16089991 -83.27734375 165.16796875 C-84.70113658 165.17119662 -86.12492911 165.17456172 -87.54872131 165.17805481 C-90.50929532 165.18398462 -93.46984041 165.18590098 -96.43041992 165.18530273 C-100.1794931 165.18520111 -103.92837696 165.19888185 -107.67740536 165.21607494 C-110.61093459 165.22731752 -113.54441967 165.22921828 -116.47796822 165.22869301 C-117.85832945 165.22985367 -119.23869257 165.23416407 -120.61903191 165.24202538 C-136.47780531 165.32395144 -155.54632101 165.20600058 -168 154 C-178.10685813 142.75489377 -178.19134179 128.22897299 -178.06640625 113.921875 C-178.06161255 112.86661621 -178.05681885 111.81135742 -178.05187988 110.72412109 C-178.03948713 108.14934472 -178.02209784 105.57470824 -178 103 C-176.98069208 102.99641747 -176.98069208 102.99641747 -175.94079208 102.99276257 C-159.36290576 102.9334808 -142.78518142 102.85784717 -126.20745468 102.76428509 C-118.19039988 102.71942742 -110.1733885 102.67998998 -102.15625 102.65356445 C-95.16390974 102.63050277 -88.17170808 102.59701449 -81.17947793 102.55129844 C-77.4813029 102.52747567 -73.7832642 102.50867557 -70.08501434 102.50238609 C-65.94417485 102.4951477 -61.80380631 102.46461862 -57.66308594 102.43237305 C-56.45323029 102.43380814 -55.24337463 102.43524323 -53.99685669 102.4367218 C-38.35782382 102.26531817 -25.58569933 98.10609624 -14.1875 87.2421875 C-2.51260547 75.27542061 -0.90030938 60.61173316 -0.68359375 44.62890625 C-0.6524221 42.71270729 -0.6524221 42.71270729 -0.62062073 40.75779724 C-0.56650546 37.38281381 -0.51619879 34.00781821 -0.46777344 30.63275146 C-0.41728721 27.18024692 -0.3617436 23.72782402 -0.30664062 20.27539062 C-0.19979186 13.51699237 -0.09796778 6.75853251 0 0 Z " fill="#FDFDFD" transform="translate(370,307)"/>
<path d="M0 0 C0 61.38 0 122.76 0 186 C-4.06212121 184.37515152 -7.72684316 182.62955505 -11.57421875 180.578125 C-12.2071434 180.24149338 -12.84006805 179.90486176 -13.49217224 179.55802917 C-15.55868815 178.45796924 -17.62315419 177.35412619 -19.6875 176.25 C-21.12541315 175.48301343 -22.56340226 174.71616924 -24.00146484 173.94946289 C-27.64280879 172.00689886 -31.2821611 170.06063754 -34.92071533 168.112854 C-36.8866834 167.06064818 -38.85316347 166.00940655 -40.81982422 164.95849609 C-62.12324308 153.57125075 -62.12324308 153.57125075 -70.875 148.5 C-75.66552853 145.72499872 -80.52583266 143.21566359 -85.49609375 140.78125 C-90.28135117 138.34861078 -94.98360781 135.77327257 -99.6875 133.1875 C-100.5861377 132.69467529 -101.48477539 132.20185059 -102.41064453 131.6940918 C-108.87232121 128.12767879 -108.87232121 128.12767879 -110 127 C-110.0942174 124.88318683 -110.11742761 122.76319242 -110.11352539 120.64428711 C-110.11367142 119.98089828 -110.11381744 119.31750946 -110.1139679 118.63401794 C-110.11326881 116.43176044 -110.10547665 114.22958655 -110.09765625 112.02734375 C-110.09579206 110.50419664 -110.09436816 108.98104893 -110.09336853 107.457901 C-110.08954346 103.44162349 -110.07971328 99.42538192 -110.06866455 95.40911865 C-110.05845019 91.31376634 -110.05387086 87.21840824 -110.04882812 83.12304688 C-110.038091 75.08201472 -110.02101472 67.04101183 -110 59 C-107.75928036 57.71955852 -105.5185572 56.43912321 -103.27783203 55.15869141 C-102.64734451 54.79840347 -102.01685699 54.43811554 -101.36726379 54.06690979 C-81.06153478 42.46351776 -81.06153478 42.46351776 -74.375 39.1875 C-67.92006425 36.02043928 -61.64032274 32.55519255 -55.33935547 29.09545898 C-49.71057564 26.01048176 -44.0660702 22.95813965 -38.3984375 19.9453125 C-37.74497345 19.59783966 -37.0915094 19.25036682 -36.41824341 18.8923645 C-33.20778278 17.18622892 -29.99568043 15.48325856 -26.78173828 13.78369141 C-25.57298209 13.14274289 -24.36448288 12.50130946 -23.15625 11.859375 C-22.56995819 11.54797577 -21.98366638 11.23657654 -21.37960815 10.91574097 C-16.32363033 8.21142119 -11.35188223 5.36705989 -6.41564941 2.45013428 C-2.2146724 0 -2.2146724 0 0 0 Z " fill="#FDFDFD" transform="translate(480,157)"/>
<path d="M0 0 C0.33 0 0.66 0 1 0 C1.14695313 0.90878906 1.14695313 0.90878906 1.296875 1.8359375 C3.92284646 16.55043274 10.3013592 27.09823639 22.27734375 36.2421875 C30.79841762 41.74359818 39.4138777 44.12077105 49.45239258 44.20532227 C50.1846405 44.21522186 50.91688843 44.22512146 51.67132568 44.23532104 C54.07902857 44.26677625 56.48675116 44.29162989 58.89453125 44.31640625 C60.56890867 44.3369896 62.24328105 44.35798643 63.91764832 44.37937927 C68.31521516 44.43445738 72.71282779 44.48392929 77.11047363 44.53222656 C81.60168512 44.58254599 86.09283047 44.63817745 90.58398438 44.69335938 C99.38926693 44.80076641 108.19460497 44.90224982 117 45 C117.0751855 48.92853871 117.12908016 52.85678833 117.16479492 56.78588867 C117.1869747 58.76561236 117.22512997 60.74513664 117.26367188 62.72460938 C117.35403166 74.62198082 115.71777128 86.54918112 107.5625 95.75 C106.716875 96.4925 105.87125 97.235 105 98 C104.29875 98.680625 103.5975 99.36125 102.875 100.0625 C88.34557024 109.85407223 66.93044555 109.2574366 50 110 C50 118.25 50 126.5 50 135 C33.5 135 17 135 0 135 C0 90.45 0 45.9 0 0 Z " fill="#FDFDFD" transform="translate(0,365)"/>
<path d="M0 0 C16.5 0 33 0 50 0 C50 8.58 50 17.16 50 26 C53.96 26.33 57.92 26.66 62 27 C66.15975993 27.76898862 70.18409945 28.89840267 74.25 30.0625 C75.33394043 30.37050537 76.41788086 30.67851074 77.53466797 30.99584961 C89.39497354 34.50776206 104.47464255 39.29382866 111.4453125 50.27734375 C116.49695901 59.6445397 117.29740755 68.55227038 117.125 79.0625 C117.11597656 80.11888672 117.10695313 81.17527344 117.09765625 82.26367188 C117.0743167 84.84269253 117.04157775 87.4212199 117 90 C115.63389336 90.00546844 115.63389336 90.00546844 114.2401886 90.01104736 C105.60564831 90.04910735 96.97147883 90.10616211 88.33720112 90.18390274 C83.89951026 90.22320601 79.46201275 90.25547772 75.02416992 90.27099609 C70.73154121 90.28627681 66.43944467 90.32092066 62.14705467 90.36830902 C60.51947882 90.38300628 58.89182694 90.39103422 57.26418495 90.39188385 C40.69733967 90.4092093 26.72283546 93.68234194 14.1875 105.3125 C6.98687963 113.0815904 3.69439729 121.88808545 1 132 C0.67 132 0.34 132 0 132 C0 88.44 0 44.88 0 0 Z " fill="#FDFDFD" transform="translate(0,0)"/>
</svg>
